<svg xmlns="http://www.w3.org/2000/svg" xmlns:xlink="http://www.w3.org/1999/xlink" width="500" zoomAndPan="magnify" viewBox="0 0 375 374.999991" height="500" preserveAspectRatio="xMidYMid meet" version="1.0"><defs><clipPath id="c4f1ef0609"><path d="M 187 54 L 321.65625 54 L 321.65625 188 L 187 188 Z M 187 54 " clip-rule="nonzero"/></clipPath><clipPath id="5918af617c"><path d="M 53.15625 79.40625 L 53.15625 295.59375 C 53.15625 310.089844 64.910156 321.84375 79.40625 321.84375 L 295.59375 321.84375 C 310.089844 321.84375 321.84375 310.089844 321.84375 295.59375 L 321.84375 79.40625 C 321.84375 64.910156 310.089844 53.15625 295.59375 53.15625 L 79.40625 53.15625 C 64.910156 53.15625 53.15625 64.910156 53.15625 79.40625 Z M 53.15625 79.40625 " clip-rule="nonzero"/></clipPath><clipPath id="59e356d1a9"><path d="M 187 187 L 321 187 L 321 321.65625 L 187 321.65625 Z M 187 187 " clip-rule="nonzero"/></clipPath><clipPath id="997e7ee9d7"><path d="M 53.15625 79.40625 L 53.15625 295.59375 C 53.15625 310.089844 64.910156 321.84375 79.40625 321.84375 L 295.59375 321.84375 C 310.089844 321.84375 321.84375 310.089844 321.84375 295.59375 L 321.84375 79.40625 C 321.84375 64.910156 310.089844 53.15625 295.59375 53.15625 L 79.40625 53.15625 C 64.910156 53.15625 53.15625 64.910156 53.15625 79.40625 Z M 53.15625 79.40625 " clip-rule="nonzero"/></clipPath><clipPath id="6a4f353c59"><path d="M 53.15625 187 L 188 187 L 188 321 L 53.15625 321 Z M 53.15625 187 " clip-rule="nonzero"/></clipPath><clipPath id="a9e9beb5a3"><path d="M 53.15625 79.40625 L 53.15625 295.59375 C 53.15625 310.089844 64.910156 321.84375 79.40625 321.84375 L 295.59375 321.84375 C 310.089844 321.84375 321.84375 310.089844 321.84375 295.59375 L 321.84375 79.40625 C 321.84375 64.910156 310.089844 53.15625 295.59375 53.15625 L 79.40625 53.15625 C 64.910156 53.15625 53.15625 64.910156 53.15625 79.40625 Z M 53.15625 79.40625 " clip-rule="nonzero"/></clipPath><clipPath id="32d436a74d"><path d="M 54 53.15625 L 188 53.15625 L 188 188 L 54 188 Z M 54 53.15625 " clip-rule="nonzero"/></clipPath><clipPath id="ee3e433e3c"><path d="M 53.15625 79.40625 L 53.15625 295.59375 C 53.15625 310.089844 64.910156 321.84375 79.40625 321.84375 L 295.59375 321.84375 C 310.089844 321.84375 321.84375 310.089844 321.84375 295.59375 L 321.84375 79.40625 C 321.84375 64.910156 310.089844 53.15625 295.59375 53.15625 L 79.40625 53.15625 C 64.910156 53.15625 53.15625 64.910156 53.15625 79.40625 Z M 53.15625 79.40625 " clip-rule="nonzero"/></clipPath></defs><rect x="-37.5" width="450" fill="#ffffff" y="-37.499999" height="449.999989" fill-opacity="1"/><rect x="-37.5" width="450" fill="#ffffff" y="-37.499999" height="449.999989" fill-opacity="1"/><g clip-path="url(#c4f1ef0609)"><g clip-path="url(#5918af617c)"><path fill="#f2e9e4" d="M 321.832031 54.238281 L 321.832031 176.414062 C 305.972656 172.90625 289.554688 171.078125 272.652344 171.078125 C 242.539062 171.078125 213.804688 176.898438 187.496094 187.496094 C 198.09375 161.1875 203.914062 132.453125 203.914062 102.339844 C 203.914062 85.847656 202.160156 69.726562 198.800781 54.238281 Z M 321.832031 54.238281 " fill-opacity="1" fill-rule="evenodd"/></g></g><g clip-path="url(#59e356d1a9)"><g clip-path="url(#997e7ee9d7)"><path fill="#ffcbeb" d="M 320.75 321.832031 L 198.578125 321.832031 C 202.085938 305.972656 203.914062 289.554688 203.914062 272.652344 C 203.914062 242.539062 198.09375 213.804688 187.496094 187.496094 C 213.804688 198.09375 242.539062 203.914062 272.652344 203.914062 C 289.144531 203.914062 305.265625 202.160156 320.75 198.800781 Z M 320.75 321.832031 " fill-opacity="1" fill-rule="evenodd"/></g></g><g clip-path="url(#6a4f353c59)"><g clip-path="url(#a9e9beb5a3)"><path fill="#f2e9e4" d="M 53.15625 320.75 L 53.15625 198.578125 C 69.015625 202.050781 85.4375 203.914062 102.339844 203.914062 C 132.453125 203.914062 161.1875 198.09375 187.496094 187.496094 C 176.898438 213.804688 171.078125 242.539062 171.078125 272.652344 C 171.078125 289.183594 172.792969 305.265625 176.1875 320.75 Z M 53.15625 320.75 " fill-opacity="1" fill-rule="evenodd"/></g></g><g clip-path="url(#32d436a74d)"><g clip-path="url(#ee3e433e3c)"><path fill="#ffcbeb" d="M 54.238281 53.15625 L 176.414062 53.15625 C 172.90625 69.015625 171.078125 85.4375 171.078125 102.339844 C 171.078125 132.453125 176.898438 161.1875 187.496094 187.496094 C 161.1875 176.898438 132.453125 171.078125 102.339844 171.078125 C 85.808594 171.078125 69.726562 172.832031 54.238281 176.1875 Z M 54.238281 53.15625 " fill-opacity="1" fill-rule="evenodd"/></g></g></svg>